<?xml version="1.0" encoding="utf-8"?>
<svg version="1.1" xmlns:xlink="http://www.w3.org/1999/xlink" width="34px" height="30px" xmlns="http://www.w3.org/2000/svg">
  <defs>
    <mask fill="white" id="clip38">
      <path d="M 15.5580357142857 29.9  L 6.3 22.3  L 15.5580357142857 29.9  Z M 31.5904017857143 2.34114583333333  C 33.1968005952381 3.90190972222222  34 6.06684027777778  34 8.8359375  C 34 11.6176215277778  32.5517113095238 14.4496527777778  29.6551339285714 17.33203125  L 17.8348214285714 28.66015625  C 17.6071428571429 28.88671875  17.3288690476191 29  17 29  C 16.6711309523809 29  16.3928571428571 28.88671875  16.1651785714286 28.66015625  L 4.32589285714286 17.2942708333333  C 4.19940476190476 17.1935763888889  4.02548363095238 17.0299479166667  3.80412946428572 16.8033854166667  C 3.58277529761905 16.5768229166667  3.23177083333333 16.1646050347222  2.75111607142857 15.5667317708333  C 2.27046130952381 14.9688585069444  1.84040178571428 14.3552517361111  1.4609375 13.7259114583333  C 1.08147321428572 13.0965711805556  0.74311755952381 12.3350694444444  0.445870535714285 11.44140625  C 0.148623511904763 10.5477430555556  0 9.67925347222222  0 8.8359375  C 0 6.06684027777778  0.803199404761905 3.90190972222222  2.40959821428572 2.34114583333333  C 4.01599702380953 0.780381944444443  6.23586309523809 0  9.06919642857143 0  C 9.85342261904762 0  10.6534598214286 0.135308159722221  11.4693080357143 0.405924479166668  C 12.28515625 0.676540798611107  13.0440848214286 1.04155815972222  13.74609375 1.5009765625  C 14.4481026785714 1.96039496527778  15.0520833333333 2.39149305555555  15.5580357142857 2.79427083333333  C 16.0639880952381 3.19704861111111  16.5446428571429 3.625  17 4.078125  C 17.4553571428571 3.625  17.9360119047619 3.19704861111111  18.4419642857143 2.79427083333333  C 18.9479166666667 2.39149305555555  19.5518973214286 1.96039496527778  20.25390625 1.5009765625  C 20.9559151785714 1.04155815972222  21.71484375 0.676540798611107  22.5306919642857 0.405924479166668  C 23.3465401785714 0.135308159722221  24.1465773809524 0  24.9308035714286 0  C 27.7641369047619 0  29.9840029761905 0.780381944444443  31.5904017857143 2.34114583333333  Z " fill-rule="evenodd" />
    </mask>
  </defs>
  <g transform="matrix(1 0 0 1 -21 -22 )">
    <path d="M 15.5580357142857 29.9  L 6.3 22.3  L 15.5580357142857 29.9  Z M 31.5904017857143 2.34114583333333  C 33.1968005952381 3.90190972222222  34 6.06684027777778  34 8.8359375  C 34 11.6176215277778  32.5517113095238 14.4496527777778  29.6551339285714 17.33203125  L 17.8348214285714 28.66015625  C 17.6071428571429 28.88671875  17.3288690476191 29  17 29  C 16.6711309523809 29  16.3928571428571 28.88671875  16.1651785714286 28.66015625  L 4.32589285714286 17.2942708333333  C 4.19940476190476 17.1935763888889  4.02548363095238 17.0299479166667  3.80412946428572 16.8033854166667  C 3.58277529761905 16.5768229166667  3.23177083333333 16.1646050347222  2.75111607142857 15.5667317708333  C 2.27046130952381 14.9688585069444  1.84040178571428 14.3552517361111  1.4609375 13.7259114583333  C 1.08147321428572 13.0965711805556  0.74311755952381 12.3350694444444  0.445870535714285 11.44140625  C 0.148623511904763 10.5477430555556  0 9.67925347222222  0 8.8359375  C 0 6.06684027777778  0.803199404761905 3.90190972222222  2.40959821428572 2.34114583333333  C 4.01599702380953 0.780381944444443  6.23586309523809 0  9.06919642857143 0  C 9.85342261904762 0  10.6534598214286 0.135308159722221  11.4693080357143 0.405924479166668  C 12.28515625 0.676540798611107  13.0440848214286 1.04155815972222  13.74609375 1.5009765625  C 14.4481026785714 1.96039496527778  15.0520833333333 2.39149305555555  15.5580357142857 2.79427083333333  C 16.0639880952381 3.19704861111111  16.5446428571429 3.625  17 4.078125  C 17.4553571428571 3.625  17.9360119047619 3.19704861111111  18.4419642857143 2.79427083333333  C 18.9479166666667 2.39149305555555  19.5518973214286 1.96039496527778  20.25390625 1.5009765625  C 20.9559151785714 1.04155815972222  21.71484375 0.676540798611107  22.5306919642857 0.405924479166668  C 23.3465401785714 0.135308159722221  24.1465773809524 0  24.9308035714286 0  C 27.7641369047619 0  29.9840029761905 0.780381944444443  31.5904017857143 2.34114583333333  Z " fill-rule="nonzero" fill="#ffffff" stroke="none" fill-opacity="0" transform="matrix(1 0 0 1 21 22 )" />
    <path d="M 15.5580357142857 29.9  L 6.3 22.3  L 15.5580357142857 29.9  Z " stroke-width="2" stroke="#ae0980" fill="none" transform="matrix(1 0 0 1 21 22 )" mask="url(#clip38)" />
    <path d="M 31.5904017857143 2.34114583333333  C 33.1968005952381 3.90190972222222  34 6.06684027777778  34 8.8359375  C 34 11.6176215277778  32.5517113095238 14.4496527777778  29.6551339285714 17.33203125  L 17.8348214285714 28.66015625  C 17.6071428571429 28.88671875  17.3288690476191 29  17 29  C 16.6711309523809 29  16.3928571428571 28.88671875  16.1651785714286 28.66015625  L 4.32589285714286 17.2942708333333  C 4.19940476190476 17.1935763888889  4.02548363095238 17.0299479166667  3.80412946428572 16.8033854166667  C 3.58277529761905 16.5768229166667  3.23177083333333 16.1646050347222  2.75111607142857 15.5667317708333  C 2.27046130952381 14.9688585069444  1.84040178571428 14.3552517361111  1.4609375 13.7259114583333  C 1.08147321428572 13.0965711805556  0.74311755952381 12.3350694444444  0.445870535714285 11.44140625  C 0.148623511904763 10.5477430555556  0 9.67925347222222  0 8.8359375  C 0 6.06684027777778  0.803199404761905 3.90190972222222  2.40959821428572 2.34114583333333  C 4.01599702380953 0.780381944444443  6.23586309523809 0  9.06919642857143 0  C 9.85342261904762 0  10.6534598214286 0.135308159722221  11.4693080357143 0.405924479166668  C 12.28515625 0.676540798611107  13.0440848214286 1.04155815972222  13.74609375 1.5009765625  C 14.4481026785714 1.96039496527778  15.0520833333333 2.39149305555555  15.5580357142857 2.79427083333333  C 16.0639880952381 3.19704861111111  16.5446428571429 3.625  17 4.078125  C 17.4553571428571 3.625  17.9360119047619 3.19704861111111  18.4419642857143 2.79427083333333  C 18.9479166666667 2.39149305555555  19.5518973214286 1.96039496527778  20.25390625 1.5009765625  C 20.9559151785714 1.04155815972222  21.71484375 0.676540798611107  22.5306919642857 0.405924479166668  C 23.3465401785714 0.135308159722221  24.1465773809524 0  24.9308035714286 0  C 27.7641369047619 0  29.9840029761905 0.780381944444443  31.5904017857143 2.34114583333333  Z " stroke-width="2" stroke="#ae0980" fill="none" transform="matrix(1 0 0 1 21 22 )" mask="url(#clip38)" />
  </g>
</svg>