<?xml version="1.0" encoding="utf-8"?>
<svg version="1.1" xmlns:xlink="http://www.w3.org/1999/xlink" width="18px" height="16px" xmlns="http://www.w3.org/2000/svg">
  <defs>
    <mask fill="white" id="clip31">
      <path d="M 8.23660714285714 15.9466666666667  L 3.33529411764706 11.8933333333333  L 8.23660714285714 15.9466666666667  Z M 16.7243303571429 1.24861111111111  C 17.5747767857143 2.08101851851852  18 3.23564814814815  18 4.7125  C 18 6.19606481481482  17.2332589285714 7.70648148148148  15.6997767857143 9.24375  L 9.44196428571429 15.2854166666667  C 9.32142857142857 15.40625  9.17410714285715 15.4666666666667  9 15.4666666666667  C 8.82589285714286 15.4666666666667  8.67857142857143 15.40625  8.55803571428571 15.2854166666667  L 2.29017857142857 9.22361111111111  C 2.22321428571429 9.16990740740741  2.13113839285714 9.08263888888889  2.01395089285714 8.96180555555555  C 1.89676339285714 8.84097222222222  1.7109375 8.62112268518519  1.45647321428572 8.30225694444445  C 1.20200892857143 7.9833912037037  0.974330357142857 7.65613425925926  0.7734375 7.32048611111111  C 0.572544642857143 6.98483796296296  0.393415178571429 6.5787037037037  0.236049107142857 6.10208333333333  C 0.0786830357142862 5.62546296296296  0 5.16226851851852  0 4.7125  C 0 3.23564814814815  0.425223214285714 2.08101851851852  1.27566964285714 1.24861111111111  C 2.12611607142857 0.416203703703703  3.30133928571429 0  4.80133928571429 0  C 5.21651785714286 0  5.64006696428571 0.0721643518518514  6.07198660714286 0.216493055555556  C 6.50390625 0.360821759259257  6.90569196428571 0.555497685185185  7.27734375 0.800520833333333  C 7.64899553571429 1.04554398148148  7.96875 1.27546296296296  8.23660714285714 1.49027777777778  C 8.50446428571428 1.70509259259259  8.75892857142857 1.93333333333333  9 2.175  C 9.24107142857143 1.93333333333333  9.49553571428572 1.70509259259259  9.76339285714286 1.49027777777778  C 10.03125 1.27546296296296  10.3510044642857 1.04554398148148  10.72265625 0.800520833333333  C 11.0943080357143 0.555497685185185  11.49609375 0.360821759259257  11.9280133928571 0.216493055555556  C 12.3599330357143 0.0721643518518514  12.7834821428571 0  13.1986607142857 0  C 14.6986607142857 0  15.8738839285714 0.416203703703703  16.7243303571429 1.24861111111111  Z " fill-rule="evenodd" />
    </mask>
  </defs>
  <g transform="matrix(1 0 0 1 -216 -86 )">
    <path d="M 8.23660714285714 15.9466666666667  L 3.33529411764706 11.8933333333333  L 8.23660714285714 15.9466666666667  Z M 16.7243303571429 1.24861111111111  C 17.5747767857143 2.08101851851852  18 3.23564814814815  18 4.7125  C 18 6.19606481481482  17.2332589285714 7.70648148148148  15.6997767857143 9.24375  L 9.44196428571429 15.2854166666667  C 9.32142857142857 15.40625  9.17410714285715 15.4666666666667  9 15.4666666666667  C 8.82589285714286 15.4666666666667  8.67857142857143 15.40625  8.55803571428571 15.2854166666667  L 2.29017857142857 9.22361111111111  C 2.22321428571429 9.16990740740741  2.13113839285714 9.08263888888889  2.01395089285714 8.96180555555555  C 1.89676339285714 8.84097222222222  1.7109375 8.62112268518519  1.45647321428572 8.30225694444445  C 1.20200892857143 7.9833912037037  0.974330357142857 7.65613425925926  0.7734375 7.32048611111111  C 0.572544642857143 6.98483796296296  0.393415178571429 6.5787037037037  0.236049107142857 6.10208333333333  C 0.0786830357142862 5.62546296296296  0 5.16226851851852  0 4.7125  C 0 3.23564814814815  0.425223214285714 2.08101851851852  1.27566964285714 1.24861111111111  C 2.12611607142857 0.416203703703703  3.30133928571429 0  4.80133928571429 0  C 5.21651785714286 0  5.64006696428571 0.0721643518518514  6.07198660714286 0.216493055555556  C 6.50390625 0.360821759259257  6.90569196428571 0.555497685185185  7.27734375 0.800520833333333  C 7.64899553571429 1.04554398148148  7.96875 1.27546296296296  8.23660714285714 1.49027777777778  C 8.50446428571428 1.70509259259259  8.75892857142857 1.93333333333333  9 2.175  C 9.24107142857143 1.93333333333333  9.49553571428572 1.70509259259259  9.76339285714286 1.49027777777778  C 10.03125 1.27546296296296  10.3510044642857 1.04554398148148  10.72265625 0.800520833333333  C 11.0943080357143 0.555497685185185  11.49609375 0.360821759259257  11.9280133928571 0.216493055555556  C 12.3599330357143 0.0721643518518514  12.7834821428571 0  13.1986607142857 0  C 14.6986607142857 0  15.8738839285714 0.416203703703703  16.7243303571429 1.24861111111111  Z " fill-rule="nonzero" fill="#ae0980" stroke="none" transform="matrix(1 0 0 1 216 86 )" />
    <path d="M 8.23660714285714 15.9466666666667  L 3.33529411764706 11.8933333333333  L 8.23660714285714 15.9466666666667  Z " stroke-width="2" stroke="#ae0980" fill="none" transform="matrix(1 0 0 1 216 86 )" mask="url(#clip31)" />
    <path d="M 16.7243303571429 1.24861111111111  C 17.5747767857143 2.08101851851852  18 3.23564814814815  18 4.7125  C 18 6.19606481481482  17.2332589285714 7.70648148148148  15.6997767857143 9.24375  L 9.44196428571429 15.2854166666667  C 9.32142857142857 15.40625  9.17410714285715 15.4666666666667  9 15.4666666666667  C 8.82589285714286 15.4666666666667  8.67857142857143 15.40625  8.55803571428571 15.2854166666667  L 2.29017857142857 9.22361111111111  C 2.22321428571429 9.16990740740741  2.13113839285714 9.08263888888889  2.01395089285714 8.96180555555555  C 1.89676339285714 8.84097222222222  1.7109375 8.62112268518519  1.45647321428572 8.30225694444445  C 1.20200892857143 7.9833912037037  0.974330357142857 7.65613425925926  0.7734375 7.32048611111111  C 0.572544642857143 6.98483796296296  0.393415178571429 6.5787037037037  0.236049107142857 6.10208333333333  C 0.0786830357142862 5.62546296296296  0 5.16226851851852  0 4.7125  C 0 3.23564814814815  0.425223214285714 2.08101851851852  1.27566964285714 1.24861111111111  C 2.12611607142857 0.416203703703703  3.30133928571429 0  4.80133928571429 0  C 5.21651785714286 0  5.64006696428571 0.0721643518518514  6.07198660714286 0.216493055555556  C 6.50390625 0.360821759259257  6.90569196428571 0.555497685185185  7.27734375 0.800520833333333  C 7.64899553571429 1.04554398148148  7.96875 1.27546296296296  8.23660714285714 1.49027777777778  C 8.50446428571428 1.70509259259259  8.75892857142857 1.93333333333333  9 2.175  C 9.24107142857143 1.93333333333333  9.49553571428572 1.70509259259259  9.76339285714286 1.49027777777778  C 10.03125 1.27546296296296  10.3510044642857 1.04554398148148  10.72265625 0.800520833333333  C 11.0943080357143 0.555497685185185  11.49609375 0.360821759259257  11.9280133928571 0.216493055555556  C 12.3599330357143 0.0721643518518514  12.7834821428571 0  13.1986607142857 0  C 14.6986607142857 0  15.8738839285714 0.416203703703703  16.7243303571429 1.24861111111111  Z " stroke-width="2" stroke="#ae0980" fill="none" transform="matrix(1 0 0 1 216 86 )" mask="url(#clip31)" />
  </g>
</svg>