<?xml version="1.0" encoding="utf-8"?>
<svg version="1.1" xmlns:xlink="http://www.w3.org/1999/xlink" width="119px" height="46px" xmlns="http://www.w3.org/2000/svg">
  <g transform="matrix(1 0 0 1 -146 -540 )">
    <path d="M 148 550  A 8 8 0 0 1 156 542 L 255 542  A 8 8 0 0 1 263 550 L 263 576  A 8 8 0 0 1 255 584 L 156 584  A 8 8 0 0 1 148 576 L 148 550  Z " fill-rule="nonzero" fill="#c21a7f" stroke="none" />
    <path d="M 147 550  A 9 9 0 0 1 156 541 L 255 541  A 9 9 0 0 1 264 550 L 264 576  A 9 9 0 0 1 255 585 L 156 585  A 9 9 0 0 1 147 576 L 147 550  Z " stroke-width="2" stroke="#ffffff" fill="none" stroke-opacity="0.996078431372549" />
  </g>
</svg>