<?xml version="1.0" encoding="utf-8"?>
<svg version="1.1" xmlns:xlink="http://www.w3.org/1999/xlink" width="92px" height="92px" xmlns="http://www.w3.org/2000/svg">
  <defs>
    <mask fill="white" id="clip54">
      <path d="M 29 112  C 23.45 112  19 107.55  19 102  L 19 30  C 19 24.45  23.45 20  29 20  L 101 20  C 106.55 20  111 24.45  111 30  L 111 102  C 111 107.55  106.55 112  101 112  " fill-rule="evenodd" />
    </mask>
  </defs>
  <g transform="matrix(1 0 0 1 -19 -20 )">
    <path d="M 19 20  L 111 20  L 111 112  L 19 112  L 19 20  " fill-rule="nonzero" fill="#cccccc" stroke="none" mask="url(#clip54)" />
    <path d="M 25 26  L 105 26  L 105 106  L 25 106  L 25 26  " fill-rule="nonzero" fill="#ffffff" stroke="none" mask="url(#clip54)" />
    <path d="M 73.74 47.6  C 69.876 47.6  66.84 44.564  66.84 40.7  C 66.84 36.836  69.876 33.8  73.74 33.8  C 77.604 33.8  80.64 36.836  80.64 40.7  C 80.64 44.564  77.604 47.6  73.74 47.6  " fill-rule="nonzero" fill="#cccccc" stroke="none" mask="url(#clip54)" />
    <path d="M 28 104  L 28 62.75  L 46.75 44  L 73 59  L 88 55.25  L 103 59  L 103 104  L 28 104  " fill-rule="nonzero" fill="#169bd5" stroke="none" mask="url(#clip54)" />
  </g>
</svg>