<?xml version="1.0" encoding="utf-8"?>
<svg version="1.1" xmlns:xlink="http://www.w3.org/1999/xlink" width="17px" height="15px" xmlns="http://www.w3.org/2000/svg">
  <defs>
    <mask fill="white" id="clip47">
      <path d="M 7.77901785714286 14.95  L 3.15 11.15  L 7.77901785714286 14.95  Z M 15.7952008928571 1.17057291666667  C 16.598400297619 1.95095486111111  17 3.03342013888889  17 4.41796875  C 17 5.80881076388889  16.2758556547619 7.22482638888889  14.8275669642857 8.666015625  L 8.91741071428572 14.330078125  C 8.80357142857143 14.443359375  8.66443452380953 14.5  8.5 14.5  C 8.33556547619047 14.5  8.19642857142857 14.443359375  8.08258928571428 14.330078125  L 2.16294642857143 8.64713541666667  C 2.09970238095238 8.59678819444444  2.01274181547619 8.51497395833333  1.90206473214286 8.40169270833333  C 1.79138764880952 8.28841145833333  1.61588541666667 8.08230251736111  1.37555803571429 7.78336588541667  C 1.13523065476191 7.48442925347222  0.920200892857142 7.17762586805555  0.73046875 6.86295572916666  C 0.540736607142858 6.54828559027778  0.371558779761905 6.16753472222222  0.222935267857142 5.720703125  C 0.0743117559523814 5.27387152777778  0 4.83962673611111  0 4.41796875  C 0 3.03342013888889  0.401599702380953 1.95095486111111  1.20479910714286 1.17057291666667  C 2.00799851190476 0.390190972222221  3.11793154761905 0  4.53459821428572 0  C 4.92671130952381 0  5.32672991071428 0.0676540798611107  5.73465401785714 0.202962239583334  C 6.142578125 0.338270399305554  6.52204241071428 0.520779079861111  6.873046875 0.75048828125  C 7.22405133928572 0.980197482638888  7.52604166666667 1.19574652777778  7.77901785714286 1.39713541666667  C 8.03199404761905 1.59852430555555  8.27232142857143 1.8125  8.5 2.0390625  C 8.72767857142857 1.8125  8.96800595238096 1.59852430555555  9.22098214285714 1.39713541666667  C 9.47395833333334 1.19574652777778  9.77594866071428 0.980197482638888  10.126953125 0.75048828125  C 10.4779575892857 0.520779079861111  10.857421875 0.338270399305554  11.2653459821429 0.202962239583334  C 11.6732700892857 0.0676540798611107  12.0732886904762 0  12.4654017857143 0  C 13.882068452381 0  14.9920014880952 0.390190972222221  15.7952008928571 1.17057291666667  Z " fill-rule="evenodd" />
    </mask>
  </defs>
  <g transform="matrix(1 0 0 1 -218 -83 )">
    <path d="M 7.77901785714286 14.95  L 3.15 11.15  L 7.77901785714286 14.95  Z M 15.7952008928571 1.17057291666667  C 16.598400297619 1.95095486111111  17 3.03342013888889  17 4.41796875  C 17 5.80881076388889  16.2758556547619 7.22482638888889  14.8275669642857 8.666015625  L 8.91741071428572 14.330078125  C 8.80357142857143 14.443359375  8.66443452380953 14.5  8.5 14.5  C 8.33556547619047 14.5  8.19642857142857 14.443359375  8.08258928571428 14.330078125  L 2.16294642857143 8.64713541666667  C 2.09970238095238 8.59678819444444  2.01274181547619 8.51497395833333  1.90206473214286 8.40169270833333  C 1.79138764880952 8.28841145833333  1.61588541666667 8.08230251736111  1.37555803571429 7.78336588541667  C 1.13523065476191 7.48442925347222  0.920200892857142 7.17762586805555  0.73046875 6.86295572916666  C 0.540736607142858 6.54828559027778  0.371558779761905 6.16753472222222  0.222935267857142 5.720703125  C 0.0743117559523814 5.27387152777778  0 4.83962673611111  0 4.41796875  C 0 3.03342013888889  0.401599702380953 1.95095486111111  1.20479910714286 1.17057291666667  C 2.00799851190476 0.390190972222221  3.11793154761905 0  4.53459821428572 0  C 4.92671130952381 0  5.32672991071428 0.0676540798611107  5.73465401785714 0.202962239583334  C 6.142578125 0.338270399305554  6.52204241071428 0.520779079861111  6.873046875 0.75048828125  C 7.22405133928572 0.980197482638888  7.52604166666667 1.19574652777778  7.77901785714286 1.39713541666667  C 8.03199404761905 1.59852430555555  8.27232142857143 1.8125  8.5 2.0390625  C 8.72767857142857 1.8125  8.96800595238096 1.59852430555555  9.22098214285714 1.39713541666667  C 9.47395833333334 1.19574652777778  9.77594866071428 0.980197482638888  10.126953125 0.75048828125  C 10.4779575892857 0.520779079861111  10.857421875 0.338270399305554  11.2653459821429 0.202962239583334  C 11.6732700892857 0.0676540798611107  12.0732886904762 0  12.4654017857143 0  C 13.882068452381 0  14.9920014880952 0.390190972222221  15.7952008928571 1.17057291666667  Z " fill-rule="nonzero" fill="#ae0980" stroke="none" transform="matrix(1 0 0 1 218 83 )" />
    <path d="M 7.77901785714286 14.95  L 3.15 11.15  L 7.77901785714286 14.95  Z " stroke-width="2" stroke="#ae0980" fill="none" transform="matrix(1 0 0 1 218 83 )" mask="url(#clip47)" />
    <path d="M 15.7952008928571 1.17057291666667  C 16.598400297619 1.95095486111111  17 3.03342013888889  17 4.41796875  C 17 5.80881076388889  16.2758556547619 7.22482638888889  14.8275669642857 8.666015625  L 8.91741071428572 14.330078125  C 8.80357142857143 14.443359375  8.66443452380953 14.5  8.5 14.5  C 8.33556547619047 14.5  8.19642857142857 14.443359375  8.08258928571428 14.330078125  L 2.16294642857143 8.64713541666667  C 2.09970238095238 8.59678819444444  2.01274181547619 8.51497395833333  1.90206473214286 8.40169270833333  C 1.79138764880952 8.28841145833333  1.61588541666667 8.08230251736111  1.37555803571429 7.78336588541667  C 1.13523065476191 7.48442925347222  0.920200892857142 7.17762586805555  0.73046875 6.86295572916666  C 0.540736607142858 6.54828559027778  0.371558779761905 6.16753472222222  0.222935267857142 5.720703125  C 0.0743117559523814 5.27387152777778  0 4.83962673611111  0 4.41796875  C 0 3.03342013888889  0.401599702380953 1.95095486111111  1.20479910714286 1.17057291666667  C 2.00799851190476 0.390190972222221  3.11793154761905 0  4.53459821428572 0  C 4.92671130952381 0  5.32672991071428 0.0676540798611107  5.73465401785714 0.202962239583334  C 6.142578125 0.338270399305554  6.52204241071428 0.520779079861111  6.873046875 0.75048828125  C 7.22405133928572 0.980197482638888  7.52604166666667 1.19574652777778  7.77901785714286 1.39713541666667  C 8.03199404761905 1.59852430555555  8.27232142857143 1.8125  8.5 2.0390625  C 8.72767857142857 1.8125  8.96800595238096 1.59852430555555  9.22098214285714 1.39713541666667  C 9.47395833333334 1.19574652777778  9.77594866071428 0.980197482638888  10.126953125 0.75048828125  C 10.4779575892857 0.520779079861111  10.857421875 0.338270399305554  11.2653459821429 0.202962239583334  C 11.6732700892857 0.0676540798611107  12.0732886904762 0  12.4654017857143 0  C 13.882068452381 0  14.9920014880952 0.390190972222221  15.7952008928571 1.17057291666667  Z " stroke-width="2" stroke="#ae0980" fill="none" transform="matrix(1 0 0 1 218 83 )" mask="url(#clip47)" />
  </g>
</svg>