<?xml version="1.0" encoding="utf-8"?>
<svg version="1.1" xmlns:xlink="http://www.w3.org/1999/xlink" width="9px" height="13px" xmlns="http://www.w3.org/2000/svg">
  <g transform="matrix(1 0 0 1 -249 -395 )">
    <path d="M 6.0908203125 5.865234375  C 6.5302734375 5.44205729166667  6.75 4.93142361111111  6.75 4.33333333333333  C 6.75 3.73524305555555  6.5302734375 3.224609375  6.0908203125 2.80143229166667  C 5.6513671875 2.37825520833333  5.12109375 2.16666666666667  4.5 2.16666666666667  C 3.87890625 2.16666666666667  3.3486328125 2.37825520833333  2.9091796875 2.80143229166667  C 2.4697265625 3.224609375  2.25 3.73524305555555  2.25 4.33333333333333  C 2.25 4.93142361111111  2.4697265625 5.44205729166667  2.9091796875 5.865234375  C 3.3486328125 6.28841145833333  3.87890625 6.5  4.5 6.5  C 5.12109375 6.5  5.6513671875 6.28841145833333  6.0908203125 5.865234375  Z M 7.681640625 1.26953125  C 8.560546875 2.11588541666667  9 3.13715277777778  9 4.33333333333333  C 9 4.94835069444444  8.9033203125 5.45334201388889  8.7099609375 5.84830729166667  L 5.5107421875 12.3990885416667  C 5.4169921875 12.5852864583333  5.27783203125 12.7319878472222  5.09326171875 12.8391927083333  C 4.90869140625 12.9463975694444  4.7109375 13  4.5 13  C 4.2890625 13  4.09130859375 12.9463975694444  3.90673828125 12.8391927083333  C 3.72216796875 12.7319878472222  3.5859375 12.5852864583333  3.498046875 12.3990885416667  L 0.2900390625 5.84830729166667  C 0.0966796875 5.45334201388889  0 4.94835069444444  0 4.33333333333333  C 0 3.13715277777778  0.439453125 2.11588541666667  1.318359375 1.26953125  C 2.197265625 0.423177083333334  3.2578125 0  4.5 0  C 5.7421875 0  6.802734375 0.423177083333334  7.681640625 1.26953125  Z " fill-rule="nonzero" fill="#000000" stroke="none" transform="matrix(1 0 0 1 249 395 )" />
  </g>
</svg>