<?xml version="1.0" encoding="utf-8"?>
<svg version="1.1" xmlns:xlink="http://www.w3.org/1999/xlink" width="12px" height="13px" xmlns="http://www.w3.org/2000/svg">
  <g transform="matrix(1 0 0 1 -249 -359 )">
    <path d="M 9.46153846153846 6.82645089285714  C 9.46153846153846 6.88932291666667  9.43990384615385 6.94494047619048  9.39663461538462 6.99330357142857  L 5.70432692307692 10.7075892857143  C 5.65625 10.7511160714286  5.60096153846154 10.7728794642857  5.53846153846154 10.7728794642857  C 5.47596153846154 10.7728794642857  5.42067307692308 10.7511160714286  5.37259615384615 10.7075892857143  L 3.29567307692308 8.61830357142857  C 3.25240384615385 8.56994047619048  3.23076923076923 8.51432291666666  3.23076923076923 8.45145089285714  C 3.23076923076923 8.38857886904762  3.25240384615385 8.33537946428571  3.29567307692308 8.29185267857143  L 3.62740384615385 7.95814732142857  C 3.67067307692308 7.91462053571429  3.72355769230769 7.89285714285714  3.78605769230769 7.89285714285714  C 3.84855769230769 7.89285714285714  3.90384615384615 7.91462053571429  3.95192307692308 7.95814732142857  L 5.53846153846154 9.55412946428571  L 8.74038461538462 6.33314732142857  C 8.78846153846154 6.28962053571429  8.84375 6.26785714285714  8.90625 6.26785714285714  C 8.96875 6.26785714285714  9.02163461538462 6.28962053571429  9.06490384615385 6.33314732142857  L 9.39663461538462 6.66685267857143  C 9.43990384615385 6.71037946428571  9.46153846153846 6.76357886904762  9.46153846153846 6.82645089285714  Z M 0.923076923076923 4.64285714285714  L 0.923076923076923 12  L 11.0769230769231 12  L 11.0769230769231 4.64285714285714  L 0.923076923076923 4.64285714285714  Z M 3.62740384615385 3.41685267857143  C 3.67067307692308 3.37332589285714  3.69230769230769 3.31770833333333  3.69230769230769 3.25  L 3.69230769230769 1.16071428571429  C 3.69230769230769 1.09300595238095  3.67067307692308 1.03738839285714  3.62740384615385 0.993861607142858  C 3.58413461538462 0.950334821428572  3.52884615384615 0.928571428571428  3.46153846153846 0.928571428571428  L 3 0.928571428571428  C 2.93269230769231 0.928571428571428  2.87740384615385 0.950334821428572  2.83413461538462 0.993861607142858  C 2.79086538461538 1.03738839285714  2.76923076923077 1.09300595238095  2.76923076923077 1.16071428571429  L 2.76923076923077 3.25  C 2.76923076923077 3.31770833333333  2.79086538461538 3.37332589285714  2.83413461538462 3.41685267857143  C 2.87740384615385 3.46037946428571  2.93269230769231 3.48214285714286  3 3.48214285714286  L 3.46153846153846 3.48214285714286  C 3.52884615384615 3.48214285714286  3.58413461538462 3.46037946428571  3.62740384615385 3.41685267857143  Z M 9.16586538461539 3.41685267857143  C 9.20913461538462 3.37332589285714  9.23076923076923 3.31770833333333  9.23076923076923 3.25  L 9.23076923076923 1.16071428571429  C 9.23076923076923 1.09300595238095  9.20913461538462 1.03738839285714  9.16586538461539 0.993861607142858  C 9.12259615384615 0.950334821428572  9.06730769230769 0.928571428571428  9 0.928571428571428  L 8.53846153846154 0.928571428571428  C 8.47115384615385 0.928571428571428  8.41586538461539 0.950334821428572  8.37259615384615 0.993861607142858  C 8.32932692307692 1.03738839285714  8.30769230769231 1.09300595238095  8.30769230769231 1.16071428571429  L 8.30769230769231 3.25  C 8.30769230769231 3.31770833333333  8.32932692307692 3.37332589285714  8.37259615384615 3.41685267857143  C 8.41586538461539 3.46037946428571  8.47115384615385 3.48214285714286  8.53846153846154 3.48214285714286  L 9 3.48214285714286  C 9.06730769230769 3.48214285714286  9.12259615384615 3.46037946428571  9.16586538461539 3.41685267857143  Z M 11.7259615384615 2.1328125  C 11.9086538461538 2.31659226190476  12 2.53422619047619  12 2.78571428571429  L 12 12.0714285714286  C 12 12.3229166666667  11.9086538461538 12.5405505952381  11.7259615384615 12.7243303571429  C 11.5432692307692 12.9081101190476  11.3269230769231 13  11.0769230769231 13  L 0.923076923076923 13  C 0.673076923076923 13  0.456730769230769 12.9081101190476  0.274038461538462 12.7243303571429  C 0.0913461538461538 12.5405505952381  0 12.3229166666667  0 12.0714285714286  L 0 2.78571428571429  C 0 2.53422619047619  0.0913461538461538 2.31659226190476  0.274038461538462 2.1328125  C 0.456730769230769 1.94903273809524  0.673076923076923 1.85714285714286  0.923076923076923 1.85714285714286  L 1.84615384615385 1.85714285714286  L 1.84615384615385 1.16071428571429  C 1.84615384615385 0.841517857142858  1.95913461538462 0.568266369047618  2.18509615384615 0.340959821428572  C 2.41105769230769 0.113653273809524  2.68269230769231 0  3 0  L 3.46153846153846 0  C 3.77884615384615 0  4.05048076923077 0.113653273809524  4.27644230769231 0.340959821428572  C 4.50240384615385 0.568266369047618  4.61538461538462 0.841517857142858  4.61538461538462 1.16071428571429  L 4.61538461538462 1.85714285714286  L 7.38461538461539 1.85714285714286  L 7.38461538461539 1.16071428571429  C 7.38461538461539 0.841517857142858  7.49759615384615 0.568266369047618  7.72355769230769 0.340959821428572  C 7.94951923076923 0.113653273809524  8.22115384615385 0  8.53846153846154 0  L 9 0  C 9.31730769230769 0  9.58894230769231 0.113653273809524  9.81490384615385 0.340959821428572  C 10.0408653846154 0.568266369047618  10.1538461538462 0.841517857142858  10.1538461538462 1.16071428571429  L 10.1538461538462 1.85714285714286  L 11.0769230769231 1.85714285714286  C 11.3269230769231 1.85714285714286  11.5432692307692 1.94903273809524  11.7259615384615 2.1328125  Z " fill-rule="nonzero" fill="#000000" stroke="none" transform="matrix(1 0 0 1 249 359 )" />
  </g>
</svg>