<?xml version="1.0" encoding="utf-8"?>
<svg version="1.1" xmlns:xlink="http://www.w3.org/1999/xlink" width="9px" height="9px" xmlns="http://www.w3.org/2000/svg">
  <g transform="matrix(1 0 0 1 -161 -765 )">
    <path d="M 6.97265625 3.75  C 6.97265625 3.8515625  6.935546875 3.939453125  6.861328125 4.013671875  L 4.388671875 6.486328125  C 4.314453125 6.560546875  4.2265625 6.59765625  4.125 6.59765625  C 4.0234375 6.59765625  3.935546875 6.560546875  3.861328125 6.486328125  L 2.138671875 4.763671875  C 2.064453125 4.689453125  2.02734375 4.6015625  2.02734375 4.5  C 2.02734375 4.3984375  2.064453125 4.310546875  2.138671875 4.236328125  L 2.736328125 3.638671875  C 2.810546875 3.564453125  2.8984375 3.52734375  3 3.52734375  C 3.1015625 3.52734375  3.189453125 3.564453125  3.263671875 3.638671875  L 4.125 4.5  L 5.736328125 2.888671875  C 5.810546875 2.814453125  5.8984375 2.77734375  6 2.77734375  C 6.1015625 2.77734375  6.189453125 2.814453125  6.263671875 2.888671875  L 6.861328125 3.486328125  C 6.935546875 3.560546875  6.97265625 3.6484375  6.97265625 3.75  Z M 7.259765625 6.099609375  C 7.544921875 5.611328125  7.6875 5.078125  7.6875 4.5  C 7.6875 3.921875  7.544921875 3.388671875  7.259765625 2.900390625  C 6.974609375 2.412109375  6.587890625 2.025390625  6.099609375 1.740234375  C 5.611328125 1.455078125  5.078125 1.3125  4.5 1.3125  C 3.921875 1.3125  3.388671875 1.455078125  2.900390625 1.740234375  C 2.412109375 2.025390625  2.025390625 2.412109375  1.740234375 2.900390625  C 1.455078125 3.388671875  1.3125 3.921875  1.3125 4.5  C 1.3125 5.078125  1.455078125 5.611328125  1.740234375 6.099609375  C 2.025390625 6.587890625  2.412109375 6.974609375  2.900390625 7.259765625  C 3.388671875 7.544921875  3.921875 7.6875  4.5 7.6875  C 5.078125 7.6875  5.611328125 7.544921875  6.099609375 7.259765625  C 6.587890625 6.974609375  6.974609375 6.587890625  7.259765625 6.099609375  Z M 8.396484375 2.2412109375  C 8.798828125 2.9306640625  9 3.68359375  9 4.5  C 9 5.31640625  8.798828125 6.0693359375  8.396484375 6.7587890625  C 7.994140625 7.4482421875  7.4482421875 7.994140625  6.7587890625 8.396484375  C 6.0693359375 8.798828125  5.31640625 9  4.5 9  C 3.68359375 9  2.9306640625 8.798828125  2.2412109375 8.396484375  C 1.5517578125 7.994140625  1.005859375 7.4482421875  0.603515625 6.7587890625  C 0.201171875 6.0693359375  0 5.31640625  0 4.5  C 0 3.68359375  0.201171875 2.9306640625  0.603515625 2.2412109375  C 1.005859375 1.5517578125  1.5517578125 1.005859375  2.2412109375 0.603515625  C 2.9306640625 0.201171874999999  3.68359375 0  4.5 0  C 5.31640625 0  6.0693359375 0.201171874999999  6.7587890625 0.603515625  C 7.4482421875 1.005859375  7.994140625 1.5517578125  8.396484375 2.2412109375  Z " fill-rule="nonzero" fill="#00a1e6" stroke="none" transform="matrix(1 0 0 1 161 765 )" />
  </g>
</svg>