<?xml version="1.0" encoding="utf-8"?>
<svg version="1.1" xmlns:xlink="http://www.w3.org/1999/xlink" width="25px" height="23px" xmlns="http://www.w3.org/2000/svg">
  <defs>
    <mask fill="white" id="clip22">
      <path d="M 11.4397321428571 22.9233333333333  L 4.63235294117647 17.0966666666667  L 11.4397321428571 22.9233333333333  Z M 23.2282366071429 1.79487847222222  C 24.409412202381 2.99146412037037  25 4.65124421296296  25 6.77421875  C 25 8.9068431712963  23.9350818452381 11.0780671296296  21.8052455357143 13.287890625  L 13.1138392857143 21.9727864583333  C 12.9464285714286 22.146484375  12.7418154761905 22.2333333333333  12.5 22.2333333333333  C 12.2581845238095 22.2333333333333  12.0535714285714 22.146484375  11.8861607142857 21.9727864583333  L 3.18080357142857 13.2589409722222  C 3.08779761904762 13.1817418981481  2.95991443452381 13.0562934027778  2.79715401785714 12.8825954861111  C 2.63439360119048 12.7088975694444  2.37630208333333 12.3928638599537  2.02287946428572 11.9344943576389  C 1.6694568452381 11.4761248553241  1.35323660714286 11.0056929976852  1.07421875 10.5231987847222  C 0.795200892857144 10.0407045717593  0.546409970238096 9.45688657407407  0.327845982142856 8.77174479166667  C 0.10928199404762 8.08660300925926  0 7.42076099537037  0 6.77421875  C 0 4.65124421296296  0.590587797619048 2.99146412037037  1.77176339285714 1.79487847222222  C 2.95293898809524 0.598292824074073  4.58519345238095 0  6.66852678571429 0  C 7.24516369047619 0  7.83342633928571 0.103736255787036  8.43331473214286 0.311208767361112  C 9.033203125 0.518681278935182  9.59123883928571 0.798527922453703  10.107421875 1.15074869791667  C 10.6236049107143 1.50296947337963  11.0677083333333 1.83347800925926  11.4397321428571 2.14227430555555  C 11.811755952381 2.45107060185185  12.1651785714286 2.77916666666667  12.5 3.1265625  C 12.8348214285714 2.77916666666667  13.1882440476191 2.45107060185185  13.5602678571429 2.14227430555555  C 13.9322916666667 1.83347800925926  14.3763950892857 1.50296947337963  14.892578125 1.15074869791667  C 15.4087611607143 0.798527922453703  15.966796875 0.518681278935182  16.5666852678571 0.311208767361112  C 17.1665736607143 0.103736255787036  17.7548363095238 0  18.3314732142857 0  C 20.4148065476191 0  22.0470610119048 0.598292824074073  23.2282366071429 1.79487847222222  Z " fill-rule="evenodd" />
    </mask>
  </defs>
  <g transform="matrix(1 0 0 1 -355 -103 )">
    <path d="M 11.4397321428571 22.9233333333333  L 4.63235294117647 17.0966666666667  L 11.4397321428571 22.9233333333333  Z M 23.2282366071429 1.79487847222222  C 24.409412202381 2.99146412037037  25 4.65124421296296  25 6.77421875  C 25 8.9068431712963  23.9350818452381 11.0780671296296  21.8052455357143 13.287890625  L 13.1138392857143 21.9727864583333  C 12.9464285714286 22.146484375  12.7418154761905 22.2333333333333  12.5 22.2333333333333  C 12.2581845238095 22.2333333333333  12.0535714285714 22.146484375  11.8861607142857 21.9727864583333  L 3.18080357142857 13.2589409722222  C 3.08779761904762 13.1817418981481  2.95991443452381 13.0562934027778  2.79715401785714 12.8825954861111  C 2.63439360119048 12.7088975694444  2.37630208333333 12.3928638599537  2.02287946428572 11.9344943576389  C 1.6694568452381 11.4761248553241  1.35323660714286 11.0056929976852  1.07421875 10.5231987847222  C 0.795200892857144 10.0407045717593  0.546409970238096 9.45688657407407  0.327845982142856 8.77174479166667  C 0.10928199404762 8.08660300925926  0 7.42076099537037  0 6.77421875  C 0 4.65124421296296  0.590587797619048 2.99146412037037  1.77176339285714 1.79487847222222  C 2.95293898809524 0.598292824074073  4.58519345238095 0  6.66852678571429 0  C 7.24516369047619 0  7.83342633928571 0.103736255787036  8.43331473214286 0.311208767361112  C 9.033203125 0.518681278935182  9.59123883928571 0.798527922453703  10.107421875 1.15074869791667  C 10.6236049107143 1.50296947337963  11.0677083333333 1.83347800925926  11.4397321428571 2.14227430555555  C 11.811755952381 2.45107060185185  12.1651785714286 2.77916666666667  12.5 3.1265625  C 12.8348214285714 2.77916666666667  13.1882440476191 2.45107060185185  13.5602678571429 2.14227430555555  C 13.9322916666667 1.83347800925926  14.3763950892857 1.50296947337963  14.892578125 1.15074869791667  C 15.4087611607143 0.798527922453703  15.966796875 0.518681278935182  16.5666852678571 0.311208767361112  C 17.1665736607143 0.103736255787036  17.7548363095238 0  18.3314732142857 0  C 20.4148065476191 0  22.0470610119048 0.598292824074073  23.2282366071429 1.79487847222222  Z " fill-rule="nonzero" fill="#ae0980" stroke="none" transform="matrix(1 0 0 1 355 103 )" />
    <path d="M 11.4397321428571 22.9233333333333  L 4.63235294117647 17.0966666666667  L 11.4397321428571 22.9233333333333  Z " stroke-width="2" stroke="#ae0980" fill="none" transform="matrix(1 0 0 1 355 103 )" mask="url(#clip22)" />
    <path d="M 23.2282366071429 1.79487847222222  C 24.409412202381 2.99146412037037  25 4.65124421296296  25 6.77421875  C 25 8.9068431712963  23.9350818452381 11.0780671296296  21.8052455357143 13.287890625  L 13.1138392857143 21.9727864583333  C 12.9464285714286 22.146484375  12.7418154761905 22.2333333333333  12.5 22.2333333333333  C 12.2581845238095 22.2333333333333  12.0535714285714 22.146484375  11.8861607142857 21.9727864583333  L 3.18080357142857 13.2589409722222  C 3.08779761904762 13.1817418981481  2.95991443452381 13.0562934027778  2.79715401785714 12.8825954861111  C 2.63439360119048 12.7088975694444  2.37630208333333 12.3928638599537  2.02287946428572 11.9344943576389  C 1.6694568452381 11.4761248553241  1.35323660714286 11.0056929976852  1.07421875 10.5231987847222  C 0.795200892857144 10.0407045717593  0.546409970238096 9.45688657407407  0.327845982142856 8.77174479166667  C 0.10928199404762 8.08660300925926  0 7.42076099537037  0 6.77421875  C 0 4.65124421296296  0.590587797619048 2.99146412037037  1.77176339285714 1.79487847222222  C 2.95293898809524 0.598292824074073  4.58519345238095 0  6.66852678571429 0  C 7.24516369047619 0  7.83342633928571 0.103736255787036  8.43331473214286 0.311208767361112  C 9.033203125 0.518681278935182  9.59123883928571 0.798527922453703  10.107421875 1.15074869791667  C 10.6236049107143 1.50296947337963  11.0677083333333 1.83347800925926  11.4397321428571 2.14227430555555  C 11.811755952381 2.45107060185185  12.1651785714286 2.77916666666667  12.5 3.1265625  C 12.8348214285714 2.77916666666667  13.1882440476191 2.45107060185185  13.5602678571429 2.14227430555555  C 13.9322916666667 1.83347800925926  14.3763950892857 1.50296947337963  14.892578125 1.15074869791667  C 15.4087611607143 0.798527922453703  15.966796875 0.518681278935182  16.5666852678571 0.311208767361112  C 17.1665736607143 0.103736255787036  17.7548363095238 0  18.3314732142857 0  C 20.4148065476191 0  22.0470610119048 0.598292824074073  23.2282366071429 1.79487847222222  Z " stroke-width="2" stroke="#ae0980" fill="none" transform="matrix(1 0 0 1 355 103 )" mask="url(#clip22)" />
  </g>
</svg>