<?xml version="1.0" encoding="utf-8"?>
<svg version="1.1" xmlns:xlink="http://www.w3.org/1999/xlink" width="57px" height="49px" xmlns="http://www.w3.org/2000/svg">
  <g transform="matrix(1 0 0 1 -30 -42 )">
    <path d="M 46.9486607142857 26.2864583333333  C 50.9352678571429 22.2881944444444  52.9285714285714 18.5026041666667  52.9285714285714 14.9296875  C 52.9285714285714 13.20703125  52.7006138392857 11.6864149305556  52.2446986607143 10.3678385416667  C 51.7887834821429 9.04926215277777  51.2056361607143 8.00184461805555  50.4952566964286 7.2255859375  C 49.7848772321429 6.44932725694444  48.9207589285714 5.81662326388889  47.9029017857143 5.32747395833333  C 46.8850446428571 4.83832465277777  45.8883928571429 4.50868055555555  44.9129464285714 4.33854166666667  C 43.9375 4.16840277777777  42.8984375 4.08333333333333  41.7957589285714 4.08333333333333  C 40.6930803571429 4.08333333333333  39.5055803571429 4.3544921875  38.2332589285714 4.89680989583333  C 36.9609375 5.43912760416667  35.7893415178571 6.11968315972222  34.7184709821429 6.9384765625  C 33.6476004464286 7.75726996527777  32.73046875 8.52289496527777  31.9670758928571 9.2353515625  C 31.2036830357143 9.94780815972222  30.5675223214286 10.6017795138889  30.05859375 11.197265625  C 29.6768973214286 11.6651475694444  29.1573660714286 11.8990885416667  28.5 11.8990885416667  C 27.8426339285714 11.8990885416667  27.3231026785714 11.6651475694444  26.94140625 11.197265625  C 26.4324776785714 10.6017795138889  25.7963169642857 9.94780815972222  25.0329241071429 9.2353515625  C 24.26953125 8.52289496527777  23.3523995535714 7.75726996527777  22.2815290178571 6.9384765625  C 21.2106584821429 6.11968315972222  20.0390625 5.43912760416667  18.7667410714286 4.89680989583333  C 17.4944196428571 4.3544921875  16.3069196428571 4.08333333333333  15.2042410714286 4.08333333333333  C 14.1015625 4.08333333333333  13.0625 4.16840277777777  12.0870535714286 4.33854166666667  C 11.1116071428571 4.50868055555555  10.1149553571429 4.83832465277777  9.09709821428571 5.32747395833333  C 8.07924107142857 5.81662326388889  7.21512276785714 6.44932725694444  6.50474330357143 7.2255859375  C 5.79436383928571 8.00184461805555  5.21121651785714 9.04926215277777  4.75530133928571 10.3678385416667  C 4.29938616071429 11.6864149305556  4.07142857142857 13.20703125  4.07142857142857 14.9296875  C 4.07142857142857 18.5026041666667  6.05412946428572 22.2775607638889  10.01953125 26.2545572916667  L 28.5 44.119140625  L 46.9486607142857 26.2864583333333  Z M 52.9603794642857 3.95572916666666  C 55.6534598214286 6.59288194444444  57 10.2508680555556  57 14.9296875  C 57 19.6297743055556  54.5719866071429 24.4149305555556  49.7159598214286 29.28515625  L 29.8995535714286 48.42578125  C 29.5178571428571 48.80859375  29.0513392857143 49  28.5 49  C 27.9486607142857 49  27.4821428571429 48.80859375  27.1004464285714 48.42578125  L 7.25223214285714 29.2213541666667  C 7.04017857142857 29.0512152777778  6.74860491071429 28.7747395833333  6.37751116071429 28.3919270833333  C 6.00641741071429 28.0091145833333  5.41796875 27.3126085069444  4.61216517857143 26.3024088541667  C 3.80636160714286 25.2922092013889  3.08537946428571 24.2554253472222  2.44921875 23.1920572916667  C 1.81305803571429 22.1286892361111  1.24581473214286 20.8420138888889  0.747488839285714 19.33203125  C 0.249162946428571 17.8220486111111  0 16.3546006944444  0 14.9296875  C 0 10.2508680555556  1.34654017857143 6.59288194444444  4.03962053571429 3.95572916666666  C 6.73270089285714 1.31857638888889  10.4542410714286 0  15.2042410714286 0  C 16.5189732142857 0  17.8602120535714 0.228624131944441  19.2279575892857 0.685872395833335  C 20.595703125 1.14312065972222  21.8680245535714 1.75987413194444  23.044921875 2.5361328125  C 24.2218191964286 3.31239149305555  25.234375 4.04079861111111  26.0825892857143 4.72135416666667  C 26.9308035714286 5.40190972222222  27.7366071428571 6.125  28.5 6.890625  C 29.2633928571429 6.125  30.0691964285714 5.40190972222222  30.9174107142857 4.72135416666667  C 31.765625 4.04079861111111  32.7781808035714 3.31239149305555  33.955078125 2.5361328125  C 35.1319754464286 1.75987413194444  36.404296875 1.14312065972222  37.7720424107143 0.685872395833335  C 39.1397879464286 0.228624131944441  40.4810267857143 0  41.7957589285714 0  C 46.5457589285714 0  50.2672991071429 1.31857638888889  52.9603794642857 3.95572916666666  Z " fill-rule="nonzero" fill="#ffffff" stroke="none" fill-opacity="0.996078431372549" transform="matrix(1 0 0 1 30 42 )" />
  </g>
</svg>