<?xml version="1.0" encoding="utf-8"?>
<svg version="1.1" xmlns:xlink="http://www.w3.org/1999/xlink" width="57px" height="57px" xmlns="http://www.w3.org/2000/svg">
  <g transform="matrix(1 0 0 1 -30 -38 )">
    <path d="M 53.9481316229782 0.349498327759195  C 54.6899051868377 -0.0953177257525146  55.4104852203012 -0.0741360089186267  56.1098717233687 0.413043478260871  C 56.8092582264362 0.921404682274245  57.0953708867819 1.59921962095875  56.968209704406 2.44648829431438  L 48.829894032348 51.2491638795987  C 48.7239263803681 51.8634336677815  48.3848298940324 52.340022296544  47.8126045733408 52.6789297658863  C 47.515895147797 52.8483835005574  47.1873954266592 52.933110367893  46.8271054099275 52.933110367893  C 46.5939765755717 52.933110367893  46.3396542108199 52.8801560758083  46.0641383156721 52.7742474916388  L 29.3106525376464 45.943143812709  L 19.8371444506414 56.3327759197324  C 19.4556609035137 56.7775919732441  18.957612939208 57  18.3430005577245 57  C 18.0462911321807 57  17.8025655326269 56.9576365663322  17.611823759063 56.8729096989967  C 17.2091466815393 56.7246376811594  16.8912437255996 56.4757525083612  16.6581148912437 56.126254180602  C 16.4249860568879 55.7767558528428  16.30842163971 55.3901895206243  17 54.9665551839465  L 17 40.6053511705686  L 1.30340211935304 34.4732441471572  C 0.519241494701617 34.1767001114827  0.0953708867819297 33.5942028985507  0.0317902955939766 32.7257525083612  C -0.0317902955939766 31.8996655518395  0.307306190741774 31.2748049052397  1.04907975460123 30.8511705685619  L 53.9481316229782 0.349498327759195  Z M 29.5967651979922 41.6538461538462  L 45.2375906302287 48.0401337792642  L 52.2632459564975 6.00501672240803  L 6.67596207473508 32.2809364548495  L 17.3575013943112 36.633779264214  L 44.792526491913 16.3311036789298  L 29.5967651979922 41.6538461538462  Z " fill-rule="nonzero" fill="#ffffff" stroke="none" fill-opacity="0.996078431372549" transform="matrix(1 0 0 1 30 38 )" />
  </g>
</svg>