<?xml version="1.0" encoding="utf-8"?>
<svg version="1.1" xmlns:xlink="http://www.w3.org/1999/xlink" width="35px" height="46px" xmlns="http://www.w3.org/2000/svg">
  <g transform="matrix(1 0 0 1 -65 -851 )">
    <path d="M 9.30930397727273 33.1010044642857  C 9.46673768939394 33.2635788690476  9.54545454545455 33.4561011904762  9.54545454545455 33.6785714285714  L 9.54545454545455 35.3214285714286  C 9.54545454545455 35.5438988095238  9.46673768939394 35.7364211309524  9.30930397727273 35.8989955357143  C 9.15187026515152 36.0615699404762  8.96543560606061 36.1428571428571  8.75 36.1428571428571  L 7.15909090909091 36.1428571428571  C 6.9436553030303 36.1428571428571  6.75722064393939 36.0615699404762  6.59978693181818 35.8989955357143  C 6.44235321969697 35.7364211309524  6.36363636363636 35.5438988095238  6.36363636363636 35.3214285714286  L 6.36363636363636 33.6785714285714  C 6.36363636363636 33.4561011904762  6.44235321969697 33.2635788690476  6.59978693181818 33.1010044642857  C 6.75722064393939 32.9384300595238  6.9436553030303 32.8571428571429  7.15909090909091 32.8571428571429  L 8.75 32.8571428571429  C 8.96543560606061 32.8571428571429  9.15187026515152 32.9384300595238  9.30930397727273 33.1010044642857  Z M 9.30930397727273 26.5295758928571  C 9.46673768939394 26.692150297619  9.54545454545455 26.8846726190476  9.54545454545455 27.1071428571429  L 9.54545454545455 28.75  C 9.54545454545455 28.9724702380952  9.46673768939394 29.1649925595238  9.30930397727273 29.3275669642857  C 9.15187026515152 29.4901413690476  8.96543560606061 29.5714285714286  8.75 29.5714285714286  L 7.15909090909091 29.5714285714286  C 6.9436553030303 29.5714285714286  6.75722064393939 29.4901413690476  6.59978693181818 29.3275669642857  C 6.44235321969697 29.1649925595238  6.36363636363636 28.9724702380952  6.36363636363636 28.75  L 6.36363636363636 27.1071428571429  C 6.36363636363636 26.8846726190476  6.44235321969697 26.692150297619  6.59978693181818 26.5295758928571  C 6.75722064393939 26.3670014880952  6.9436553030303 26.2857142857143  7.15909090909091 26.2857142857143  L 8.75 26.2857142857143  C 8.96543560606061 26.2857142857143  9.15187026515152 26.3670014880952  9.30930397727273 26.5295758928571  Z M 15.6729403409091 26.5295758928571  C 15.8303740530303 26.692150297619  15.9090909090909 26.8846726190476  15.9090909090909 27.1071428571429  L 15.9090909090909 28.75  C 15.9090909090909 28.9724702380952  15.8303740530303 29.1649925595238  15.6729403409091 29.3275669642857  C 15.5155066287879 29.4901413690476  15.329071969697 29.5714285714286  15.1136363636364 29.5714285714286  L 13.5227272727273 29.5714285714286  C 13.3072916666667 29.5714285714286  13.1208570075758 29.4901413690476  12.9634232954545 29.3275669642857  C 12.8059895833333 29.1649925595238  12.7272727272727 28.9724702380952  12.7272727272727 28.75  L 12.7272727272727 27.1071428571429  C 12.7272727272727 26.8846726190476  12.8059895833333 26.692150297619  12.9634232954545 26.5295758928571  C 13.1208570075758 26.3670014880952  13.3072916666667 26.2857142857143  13.5227272727273 26.2857142857143  L 15.1136363636364 26.2857142857143  C 15.329071969697 26.2857142857143  15.5155066287879 26.3670014880952  15.6729403409091 26.5295758928571  Z M 9.30930397727273 19.9581473214286  C 9.46673768939394 20.1207217261905  9.54545454545455 20.313244047619  9.54545454545455 20.5357142857143  L 9.54545454545455 22.1785714285714  C 9.54545454545455 22.4010416666667  9.46673768939394 22.5935639880952  9.30930397727273 22.7561383928571  C 9.15187026515152 22.918712797619  8.96543560606061 23  8.75 23  L 7.15909090909091 23  C 6.9436553030303 23  6.75722064393939 22.918712797619  6.59978693181818 22.7561383928571  C 6.44235321969697 22.5935639880952  6.36363636363636 22.4010416666667  6.36363636363636 22.1785714285714  L 6.36363636363636 20.5357142857143  C 6.36363636363636 20.313244047619  6.44235321969697 20.1207217261905  6.59978693181818 19.9581473214286  C 6.75722064393939 19.7955729166667  6.9436553030303 19.7142857142857  7.15909090909091 19.7142857142857  L 8.75 19.7142857142857  C 8.96543560606061 19.7142857142857  9.15187026515152 19.7955729166667  9.30930397727273 19.9581473214286  Z M 28.4002130681818 33.1010044642857  C 28.557646780303 33.2635788690476  28.6363636363636 33.4561011904762  28.6363636363636 33.6785714285714  L 28.6363636363636 35.3214285714286  C 28.6363636363636 35.5438988095238  28.557646780303 35.7364211309524  28.4002130681818 35.8989955357143  C 28.2427793560606 36.0615699404762  28.0563446969697 36.1428571428571  27.8409090909091 36.1428571428571  L 26.25 36.1428571428571  C 26.0345643939394 36.1428571428571  25.8481297348485 36.0615699404762  25.6906960227273 35.8989955357143  C 25.5332623106061 35.7364211309524  25.4545454545455 35.5438988095238  25.4545454545455 35.3214285714286  L 25.4545454545455 33.6785714285714  C 25.4545454545455 33.4561011904762  25.5332623106061 33.2635788690476  25.6906960227273 33.1010044642857  C 25.8481297348485 32.9384300595238  26.0345643939394 32.8571428571429  26.25 32.8571428571429  L 27.8409090909091 32.8571428571429  C 28.0563446969697 32.8571428571429  28.2427793560606 32.9384300595238  28.4002130681818 33.1010044642857  Z M 22.0365767045455 26.5295758928571  C 22.1940104166667 26.692150297619  22.2727272727273 26.8846726190476  22.2727272727273 27.1071428571429  L 22.2727272727273 28.75  C 22.2727272727273 28.9724702380952  22.1940104166667 29.1649925595238  22.0365767045455 29.3275669642857  C 21.8791429924242 29.4901413690476  21.6927083333333 29.5714285714286  21.4772727272727 29.5714285714286  L 19.8863636363636 29.5714285714286  C 19.670928030303 29.5714285714286  19.4844933712121 29.4901413690476  19.3270596590909 29.3275669642857  C 19.1696259469697 29.1649925595238  19.0909090909091 28.9724702380952  19.0909090909091 28.75  L 19.0909090909091 27.1071428571429  C 19.0909090909091 26.8846726190476  19.1696259469697 26.692150297619  19.3270596590909 26.5295758928571  C 19.4844933712121 26.3670014880952  19.670928030303 26.2857142857143  19.8863636363636 26.2857142857143  L 21.4772727272727 26.2857142857143  C 21.6927083333333 26.2857142857143  21.8791429924242 26.3670014880952  22.0365767045455 26.5295758928571  Z M 15.6729403409091 19.9581473214286  C 15.8303740530303 20.1207217261905  15.9090909090909 20.313244047619  15.9090909090909 20.5357142857143  L 15.9090909090909 22.1785714285714  C 15.9090909090909 22.4010416666667  15.8303740530303 22.5935639880952  15.6729403409091 22.7561383928571  C 15.5155066287879 22.918712797619  15.329071969697 23  15.1136363636364 23  L 13.5227272727273 23  C 13.3072916666667 23  13.1208570075758 22.918712797619  12.9634232954545 22.7561383928571  C 12.8059895833333 22.5935639880952  12.7272727272727 22.4010416666667  12.7272727272727 22.1785714285714  L 12.7272727272727 20.5357142857143  C 12.7272727272727 20.313244047619  12.8059895833333 20.1207217261905  12.9634232954545 19.9581473214286  C 13.1208570075758 19.7955729166667  13.3072916666667 19.7142857142857  13.5227272727273 19.7142857142857  L 15.1136363636364 19.7142857142857  C 15.329071969697 19.7142857142857  15.5155066287879 19.7955729166667  15.6729403409091 19.9581473214286  Z M 28.4002130681818 26.5295758928571  C 28.557646780303 26.692150297619  28.6363636363636 26.8846726190476  28.6363636363636 27.1071428571429  L 28.6363636363636 28.75  C 28.6363636363636 28.9724702380952  28.557646780303 29.1649925595238  28.4002130681818 29.3275669642857  C 28.2427793560606 29.4901413690476  28.0563446969697 29.5714285714286  27.8409090909091 29.5714285714286  L 26.25 29.5714285714286  C 26.0345643939394 29.5714285714286  25.8481297348485 29.4901413690476  25.6906960227273 29.3275669642857  C 25.5332623106061 29.1649925595238  25.4545454545455 28.9724702380952  25.4545454545455 28.75  L 25.4545454545455 27.1071428571429  C 25.4545454545455 26.8846726190476  25.5332623106061 26.692150297619  25.6906960227273 26.5295758928571  C 25.8481297348485 26.3670014880952  26.0345643939394 26.2857142857143  26.25 26.2857142857143  L 27.8409090909091 26.2857142857143  C 28.0563446969697 26.2857142857143  28.2427793560606 26.3670014880952  28.4002130681818 26.5295758928571  Z M 22.0365767045455 19.9581473214286  C 22.1940104166667 20.1207217261905  22.2727272727273 20.313244047619  22.2727272727273 20.5357142857143  L 22.2727272727273 22.1785714285714  C 22.2727272727273 22.4010416666667  22.1940104166667 22.5935639880952  22.0365767045455 22.7561383928571  C 21.8791429924242 22.918712797619  21.6927083333333 23  21.4772727272727 23  L 19.8863636363636 23  C 19.670928030303 23  19.4844933712121 22.918712797619  19.3270596590909 22.7561383928571  C 19.1696259469697 22.5935639880952  19.0909090909091 22.4010416666667  19.0909090909091 22.1785714285714  L 19.0909090909091 20.5357142857143  C 19.0909090909091 20.313244047619  19.1696259469697 20.1207217261905  19.3270596590909 19.9581473214286  C 19.4844933712121 19.7955729166667  19.670928030303 19.7142857142857  19.8863636363636 19.7142857142857  L 21.4772727272727 19.7142857142857  C 21.6927083333333 19.7142857142857  21.8791429924242 19.7955729166667  22.0365767045455 19.9581473214286  Z M 28.4002130681818 19.9581473214286  C 28.557646780303 20.1207217261905  28.6363636363636 20.313244047619  28.6363636363636 20.5357142857143  L 28.6363636363636 22.1785714285714  C 28.6363636363636 22.4010416666667  28.557646780303 22.5935639880952  28.4002130681818 22.7561383928571  C 28.2427793560606 22.918712797619  28.0563446969697 23  27.8409090909091 23  L 26.25 23  C 26.0345643939394 23  25.8481297348485 22.918712797619  25.6906960227273 22.7561383928571  C 25.5332623106061 22.5935639880952  25.4545454545455 22.4010416666667  25.4545454545455 22.1785714285714  L 25.4545454545455 20.5357142857143  C 25.4545454545455 20.313244047619  25.5332623106061 20.1207217261905  25.6906960227273 19.9581473214286  C 25.8481297348485 19.7955729166667  26.0345643939394 19.7142857142857  26.25 19.7142857142857  L 27.8409090909091 19.7142857142857  C 28.0563446969697 19.7142857142857  28.2427793560606 19.7955729166667  28.4002130681818 19.9581473214286  Z M 22.2727272727273 36.9642857142857  L 22.2727272727273 42.7142857142857  L 31.8181818181818 42.7142857142857  L 31.8181818181818 13.1428571428571  L 25.4545454545455 13.1428571428571  L 25.4545454545455 13.9642857142857  C 25.4545454545455 14.6488095238095  25.2225378787879 15.2306547619048  24.7585227272727 15.7098214285714  C 24.2945075757576 16.1889880952381  23.7310606060606 16.4285714285714  23.0681818181818 17  L 11.9318181818182 17  C 11.2689393939394 16.4285714285714  10.7054924242424 16.1889880952381  10.2414772727273 15.7098214285714  C 9.77746212121212 15.2306547619048  9.54545454545455 14.6488095238095  9.54545454545455 13.9642857142857  L 9.54545454545455 13.1428571428571  L 3.18181818181818 13.1428571428571  L 3.18181818181818 42.7142857142857  L 12.7272727272727 42.7142857142857  L 12.7272727272727 36.9642857142857  C 12.7272727272727 36.7418154761905  12.8059895833333 36.5492931547619  12.9634232954545 36.38671875  C 13.1208570075758 36.2241443452381  13.3072916666667 36.1428571428571  13.5227272727273 36.1428571428571  L 21.4772727272727 36.1428571428571  C 21.6927083333333 36.1428571428571  21.8791429924242 36.2241443452381  22.0365767045455 36.38671875  C 22.1940104166667 36.5492931547619  22.2727272727273 36.7418154761905  22.2727272727273 36.9642857142857  Z M 22.0365767045455 12.8989955357143  C 22.1940104166667 12.7364211309524  22.2727272727273 12.5438988095238  22.2727272727273 12.3214285714286  L 22.2727272727273 4.10714285714286  C 22.2727272727273 3.88467261904762  22.1940104166667 3.69215029761905  22.0365767045455 3.52957589285714  C 21.8791429924242 3.36700148809523  21.6927083333333 3.28571428571428  21.4772727272727 3.28571428571428  L 19.8863636363636 3.28571428571428  C 19.670928030303 3.28571428571428  19.4844933712121 3.36700148809523  19.3270596590909 3.52957589285714  C 19.1696259469697 3.69215029761905  19.0909090909091 3.88467261904762  19.0909090909091 4.10714285714286  L 19.0909090909091 6.57142857142857  L 15.9090909090909 6.57142857142857  L 15.9090909090909 4.10714285714286  C 15.9090909090909 3.88467261904762  15.8303740530303 3.69215029761905  15.6729403409091 3.52957589285714  C 15.5155066287879 3.36700148809523  15.329071969697 3.28571428571428  15.1136363636364 3.28571428571428  L 13.5227272727273 3.28571428571428  C 13.3072916666667 3.28571428571428  13.1208570075758 3.36700148809523  12.9634232954545 3.52957589285714  C 12.8059895833333 3.69215029761905  12.7272727272727 3.88467261904762  12.7272727272727 4.10714285714286  L 12.7272727272727 12.3214285714286  C 12.7272727272727 12.5438988095238  12.8059895833333 12.7364211309524  12.9634232954545 12.8989955357143  C 13.1208570075758 13.0615699404762  13.3072916666667 13.1428571428571  13.5227272727273 13.1428571428571  L 15.1136363636364 13.1428571428571  C 15.329071969697 13.1428571428571  15.5155066287879 13.0615699404762  15.6729403409091 12.8989955357143  C 15.8303740530303 12.7364211309524  15.9090909090909 12.5438988095238  15.9090909090909 12.3214285714286  L 15.9090909090909 9.85714285714286  L 19.0909090909091 9.85714285714286  L 19.0909090909091 12.3214285714286  C 19.0909090909091 12.5438988095238  19.1696259469697 12.7364211309524  19.3270596590909 12.8989955357143  C 19.4844933712121 13.0615699404762  19.670928030303 13.1428571428571  19.8863636363636 13.1428571428571  L 21.4772727272727 13.1428571428571  C 21.6927083333333 13.1428571428571  21.8791429924242 13.0615699404762  22.0365767045455 12.8989955357143  Z M 34.5276988636364 10.3448660714286  C 34.8425662878788 10.6700148809524  35 11.0550595238095  35 11.5  L 35 44.3571428571429  C 35 44.8020833333333  34.8425662878788 45.1871279761905  34.5276988636364 45.5122767857143  C 34.2128314393939 45.8374255952381  33.8399621212121 46  33.4090909090909 46  L 1.59090909090909 46  C 1.16003787878788 46  0.787168560606061 45.8374255952381  0.472301136363636 45.5122767857143  C 0.157433712121212 45.1871279761905  0 44.8020833333333  0 44.3571428571429  L 0 11.5  C 0 11.0550595238095  0.157433712121212 10.6700148809524  0.472301136363636 10.3448660714286  C 0.787168560606061 10.0197172619048  1.16003787878788 9.85714285714286  1.59090909090909 9.85714285714286  L 9.54545454545455 9.85714285714286  L 9.54545454545455 2.46428571428572  C 9.54545454545455 1.7797619047619  9.77746212121212 1.19791666666666  10.2414772727273 0.71875  C 10.7054924242424 0.239583333333335  11.2689393939394 0  11.9318181818182 0  L 23.0681818181818 0  C 23.7310606060606 0  24.2945075757576 0.239583333333335  24.7585227272727 0.71875  C 25.2225378787879 1.19791666666666  25.4545454545455 1.7797619047619  25.4545454545455 2.46428571428572  L 25.4545454545455 9.85714285714286  L 33.4090909090909 9.85714285714286  C 33.8399621212121 9.85714285714286  34.2128314393939 10.0197172619048  34.5276988636364 10.3448660714286  Z " fill-rule="nonzero" fill="#ae0980" stroke="none" transform="matrix(1 0 0 1 65 851 )" />
  </g>
</svg>