<?xml version="1.0" encoding="utf-8"?>
<svg version="1.1" xmlns:xlink="http://www.w3.org/1999/xlink" width="46px" height="46px" xmlns="http://www.w3.org/2000/svg">
  <g transform="matrix(1 0 0 1 -180 -851 )">
    <path d="M 37.3423295454545 21.203125  C 37.5383522727273 21.3991477272727  37.6363636363636 21.6496212121212  37.6363636363636 21.9545454545455  L 37.6363636363636 24.0454545454545  C 37.6363636363636 24.3503787878788  37.5383522727273 24.6008522727273  37.3423295454545 24.796875  C 37.1463068181818 24.9928977272727  36.8958333333333 25.0909090909091  36.5909090909091 25  L 25 25  L 25 36.5909090909091  C 25.0909090909091 36.8958333333333  24.9928977272727 37.1463068181818  24.796875 37.3423295454545  C 24.6008522727273 37.5383522727273  24.3503787878788 37.6363636363636  24.0454545454545 37.6363636363636  L 21.9545454545455 37.6363636363636  C 21.6496212121212 37.6363636363636  21.3991477272727 37.5383522727273  21.203125 37.3423295454545  C 21.0071022727273 37.1463068181818  20.9090909090909 36.8958333333333  21 36.5909090909091  L 21 25  L 9.40909090909091 25  C 9.10416666666667 25.0909090909091  8.85369318181818 24.9928977272727  8.65767045454546 24.796875  C 8.46164772727273 24.6008522727273  8.36363636363636 24.3503787878788  8.36363636363636 24.0454545454545  L 8.36363636363636 21.9545454545455  C 8.36363636363636 21.6496212121212  8.46164772727273 21.3991477272727  8.65767045454546 21.203125  C 8.85369318181818 21.0071022727273  9.10416666666667 20.9090909090909  9.40909090909091 21  L 21 21  L 21 9.40909090909091  C 20.9090909090909 9.10416666666666  21.0071022727273 8.85369318181818  21.203125 8.65767045454546  C 21.3991477272727 8.46164772727273  21.6496212121212 8.36363636363636  21.9545454545455 8.36363636363636  L 24.0454545454545 8.36363636363636  C 24.3503787878788 8.36363636363636  24.6008522727273 8.46164772727273  24.796875 8.65767045454546  C 24.9928977272727 8.85369318181818  25.0909090909091 9.10416666666666  25 9.40909090909091  L 25 21  L 36.5909090909091 21  C 36.8958333333333 20.9090909090909  37.1463068181818 21.0071022727273  37.3423295454545 21.203125  Z M 40.2826704545455 40.2826704545455  C 41.3063446969697 39.2589962121212  41.8181818181818 38.0284090909091  41 36.5909090909091  L 41 9.40909090909091  C 41.8181818181818 7.97159090909091  41.3063446969697 6.74100378787879  40.2826704545455 5.71732954545455  C 39.2589962121212 4.6936553030303  38.0284090909091 4.18181818181818  36.5909090909091 5  L 9.40909090909091 5  C 7.97159090909091 4.18181818181818  6.74100378787879 4.6936553030303  5.71732954545455 5.71732954545455  C 4.6936553030303 6.74100378787879  4.18181818181818 7.97159090909091  5 9.40909090909091  L 5 36.5909090909091  C 4.18181818181818 38.0284090909091  4.6936553030303 39.2589962121212  5.71732954545455 40.2826704545455  C 6.74100378787879 41.3063446969697  7.97159090909091 41.8181818181818  9.40909090909091 41  L 36.5909090909091 41  C 38.0284090909091 41.8181818181818  39.2589962121212 41.3063446969697  40.2826704545455 40.2826704545455  Z M 43.2393465909091 2.76065340909091  C 45.0797821969697 4.60108901515151  46 6.81723484848484  46 9.40909090909091  L 46 36.5909090909091  C 46 39.1827651515151  45.0797821969697 41.3989109848485  43.2393465909091 43.2393465909091  C 41.3989109848485 45.0797821969697  39.1827651515152 46  36.5909090909091 46  L 9.40909090909091 46  C 6.81723484848485 46  4.60108901515152 45.0797821969697  2.76065340909091 43.2393465909091  C 0.920217803030303 41.3989109848485  0 39.1827651515151  0 36.5909090909091  L 0 9.40909090909091  C 0 6.81723484848484  0.920217803030303 4.60108901515151  2.76065340909091 2.76065340909091  C 4.60108901515152 0.920217803030299  6.81723484848485 0  9.40909090909091 0  L 36.5909090909091 0  C 39.1827651515152 0  41.3989109848485 0.920217803030299  43.2393465909091 2.76065340909091  Z " fill-rule="nonzero" fill="#ae0980" stroke="none" transform="matrix(1 0 0 1 180 851 )" />
  </g>
</svg>