<?xml version="1.0" encoding="utf-8"?>
<svg version="1.1" xmlns:xlink="http://www.w3.org/1999/xlink" width="15px" height="23px" xmlns="http://www.w3.org/2000/svg">
  <g transform="matrix(1 0 0 1 -147 -103 )">
    <path d="M 10.1513671875 10.376953125  C 10.8837890625 9.62825520833333  11.25 8.72482638888889  11.25 7.66666666666667  C 11.25 6.60850694444444  10.8837890625 5.705078125  10.1513671875 4.95638020833333  C 9.4189453125 4.20768229166667  8.53515625 3.83333333333333  7.5 3.83333333333333  C 6.46484375 3.83333333333333  5.5810546875 4.20768229166667  4.8486328125 4.95638020833333  C 4.1162109375 5.705078125  3.75 6.60850694444444  3.75 7.66666666666667  C 3.75 8.72482638888889  4.1162109375 9.62825520833333  4.8486328125 10.376953125  C 5.5810546875 11.1256510416667  6.46484375 11.5  7.5 11.5  C 8.53515625 11.5  9.4189453125 11.1256510416667  10.1513671875 10.376953125  Z M 12.802734375 2.24609375  C 14.267578125 3.74348958333333  15 5.55034722222222  15 7.66666666666667  C 15 8.75477430555555  14.8388671875 9.64822048611111  14.5166015625 10.3470052083333  L 9.1845703125 21.9368489583333  C 9.0283203125 22.2662760416667  8.79638671875 22.5258246527778  8.48876953125 22.7154947916667  C 8.18115234375 22.9051649305556  7.8515625 23  7.5 23  C 7.1484375 23  6.81884765625 22.9051649305556  6.51123046875 22.7154947916667  C 6.20361328125 22.5258246527778  5.9765625 22.2662760416667  5.830078125 21.9368489583333  L 0.4833984375 10.3470052083333  C 0.1611328125 9.64822048611111  0 8.75477430555555  0 7.66666666666667  C 0 5.55034722222222  0.732421875 3.74348958333333  2.197265625 2.24609375  C 3.662109375 0.748697916666668  5.4296875 0  7.5 0  C 9.5703125 0  11.337890625 0.748697916666668  12.802734375 2.24609375  Z " fill-rule="nonzero" fill="#000000" stroke="none" transform="matrix(1 0 0 1 147 103 )" />
  </g>
</svg>