<?xml version="1.0" encoding="utf-8"?>
<svg version="1.1" xmlns:xlink="http://www.w3.org/1999/xlink" width="107px" height="100px" xmlns="http://www.w3.org/2000/svg">
  <defs>
    <mask fill="white" id="clip21">
      <path d="M 30 123  C 27.225 123  25 120.775  25 118  L 25 28  C 25 25.225  27.225 23  30 23  L 127 23  C 129.775 23  132 25.225  132 28  L 132 118  C 132 120.775  129.775 123  127 123  " fill-rule="evenodd" />
    </mask>
  </defs>
  <g transform="matrix(1 0 0 1 -25 -23 )">
    <path d="M 25 23  L 132 23  L 132 123  L 25 123  L 25 23  " fill-rule="nonzero" fill="#cccccc" stroke="none" mask="url(#clip21)" />
    <path d="M 32 30  L 125 30  L 125 116  L 32 116  L 32 30  " fill-rule="nonzero" fill="#ffffff" stroke="none" mask="url(#clip21)" />
    <path d="M 88.14 53  C 83.94 53  80.64 49.7  80.64 45.5  C 80.64 41.3  83.94 38  88.14 38  C 92.34 38  95.64 41.3  95.64 45.5  C 95.64 49.7  92.34 53  88.14 53  " fill-rule="nonzero" fill="#cccccc" stroke="none" mask="url(#clip21)" />
    <path d="M 35 114  L 35 69.45  L 57 49.2  L 87.8 68.5794392523364  L 105.4 61.35  L 123 68.5794392523364  L 123 114  L 35 114  " fill-rule="nonzero" fill="#169bd5" stroke="none" mask="url(#clip21)" />
  </g>
</svg>