<?xml version="1.0" encoding="utf-8"?>
<svg version="1.1" xmlns:xlink="http://www.w3.org/1999/xlink" width="10px" height="10px" xmlns="http://www.w3.org/2000/svg">
  <g transform="matrix(1 0 0 1 -7 -9 )">
    <path d="M 6.60807291666667 8.27473958333333  C 6.64713541666667 8.23567708333333  6.66666666666667 8.18576388888889  6.66666666666667 8.125  L 6.66666666666667 7.08333333333333  C 6.66666666666667 7.02256944444444  6.64713541666667 6.97265625  6.60807291666667 6.93359375  C 6.56901041666667 6.89453125  6.51909722222222 6.875  6.45833333333333 6.875  L 5.83333333333333 6.875  L 5.83333333333333 3.54166666666667  C 5.83333333333333 3.48090277777778  5.81380208333333 3.43098958333333  5.77473958333333 3.39192708333333  C 5.73567708333333 3.35286458333333  5.68576388888889 3.33333333333333  5.625 3.33333333333333  L 3.54166666666667 3.33333333333333  C 3.48090277777778 3.33333333333333  3.43098958333333 3.35286458333333  3.39192708333333 3.39192708333333  C 3.35286458333333 3.43098958333333  3.33333333333333 3.48090277777778  3.33333333333333 3.54166666666667  L 3.33333333333333 4.58333333333333  C 3.33333333333333 4.64409722222222  3.35286458333333 4.69401041666667  3.39192708333333 4.73307291666667  C 3.43098958333333 4.77213541666667  3.48090277777778 4.79166666666667  3.54166666666667 4.79166666666667  L 4.16666666666667 4.79166666666667  L 4.16666666666667 6.875  L 3.54166666666667 6.875  C 3.48090277777778 6.875  3.43098958333333 6.89453125  3.39192708333333 6.93359375  C 3.35286458333333 6.97265625  3.33333333333333 7.02256944444444  3.33333333333333 7.08333333333333  L 3.33333333333333 8.125  C 3.33333333333333 8.18576388888889  3.35286458333333 8.23567708333333  3.39192708333333 8.27473958333333  C 3.43098958333333 8.31380208333333  3.48090277777778 8.33333333333333  3.54166666666667 8.33333333333333  L 6.45833333333333 8.33333333333333  C 6.51909722222222 8.33333333333333  6.56901041666667 8.31380208333333  6.60807291666667 8.27473958333333  Z M 5.77473958333333 2.44140625  C 5.81380208333333 2.40234375  5.83333333333333 2.35243055555555  5.83333333333333 2.29166666666667  L 5.83333333333333 1.25  C 5.83333333333333 1.18923611111111  5.81380208333333 1.13932291666667  5.77473958333333 1.10026041666667  C 5.73567708333333 1.06119791666667  5.68576388888889 1.04166666666667  5.625 1.04166666666667  L 4.375 1.04166666666667  C 4.31423611111111 1.04166666666667  4.26432291666667 1.06119791666667  4.22526041666667 1.10026041666667  C 4.18619791666667 1.13932291666667  4.16666666666667 1.18923611111111  4.16666666666667 1.25  L 4.16666666666667 2.29166666666667  C 4.16666666666667 2.35243055555555  4.18619791666667 2.40234375  4.22526041666667 2.44140625  C 4.26432291666667 2.48046875  4.31423611111111 2.5  4.375 2.5  L 5.625 2.5  C 5.68576388888889 2.5  5.73567708333333 2.48046875  5.77473958333333 2.44140625  Z M 9.32942708333333 2.490234375  C 9.77647569444444 3.25629340277778  10 4.09288194444444  10 5  C 10 5.90711805555556  9.77647569444444 6.74370659722222  9.32942708333333 7.509765625  C 8.88237847222222 8.27582465277778  8.27582465277778 8.88237847222222  7.509765625 9.32942708333333  C 6.74370659722222 9.77647569444444  5.90711805555556 10  5 10  C 4.09288194444444 10  3.25629340277778 9.77647569444444  2.490234375 9.32942708333333  C 1.72417534722222 8.88237847222222  1.11762152777778 8.27582465277778  0.670572916666667 7.509765625  C 0.223524305555556 6.74370659722222  0 5.90711805555556  0 5  C 0 4.09288194444444  0.223524305555556 3.25629340277778  0.670572916666667 2.490234375  C 1.11762152777778 1.72417534722222  1.72417534722222 1.11762152777778  2.490234375 0.670572916666666  C 3.25629340277778 0.223524305555555  4.09288194444444 0  5 0  C 5.90711805555556 0  6.74370659722222 0.223524305555555  7.509765625 0.670572916666666  C 8.27582465277778 1.11762152777778  8.88237847222222 1.72417534722222  9.32942708333333 2.490234375  Z " fill-rule="nonzero" fill="#000000" stroke="none" transform="matrix(1 0 0 1 7 9 )" />
  </g>
</svg>